<svg width="512" height="512" viewBox="0 0 512 512" xmlns="http://www.w3.org/2000/svg">
  <defs>
    <!-- Main gradient: blue to pink to orange -->
    <linearGradient id="mainGradient" x1="0%" y1="0%" x2="100%" y2="100%">
      <stop offset="0%" style="stop-color:#00d4ff;stop-opacity:1" />
      <stop offset="35%" style="stop-color:#7b2ff7;stop-opacity:1" />
      <stop offset="65%" style="stop-color:#ff0080;stop-opacity:1" />
      <stop offset="100%" style="stop-color:#ff6b35;stop-opacity:1" />
    </linearGradient>
    
    <!-- Intense outer glow (4 layers) -->
    <filter id="neonGlow" x="-100%" y="-100%" width="300%" height="300%">
      <!-- Outer cyan glow -->
      <feGaussianBlur in="SourceAlpha" stdDeviation="20" result="blur1"/>
      <feFlood flood-color="#00d4ff" flood-opacity="0.8"/>
      <feComposite in2="blur1" operator="in" result="glow1"/>
      
      <!-- Mid purple glow -->
      <feGaussianBlur in="SourceAlpha" stdDeviation="12" result="blur2"/>
      <feFlood flood-color="#7b2ff7" flood-opacity="0.9"/>
      <feComposite in2="blur2" operator="in" result="glow2"/>
      
      <!-- Inner pink glow -->
      <feGaussianBlur in="SourceAlpha" stdDeviation="6" result="blur3"/>
      <feFlood flood-color="#ff0080" flood-opacity="1"/>
      <feComposite in2="blur3" operator="in" result="glow3"/>
      
      <!-- Brightest white core -->
      <feGaussianBlur in="SourceAlpha" stdDeviation="2" result="blur4"/>
      <feFlood flood-color="#ffffff" flood-opacity="1"/>
      <feComposite in2="blur4" operator="in" result="glow4"/>
      
      <feMerge>
        <feMergeNode in="glow1"/>
        <feMergeNode in="glow2"/>
        <feMergeNode in="glow3"/>
        <feMergeNode in="glow4"/>
        <feMergeNode in="SourceGraphic"/>
      </feMerge>
    </filter>
    
    <!-- Sparkle glow -->
    <filter id="sparkleGlow" x="-200%" y="-200%" width="500%" height="500%">
      <feGaussianBlur in="SourceAlpha" stdDeviation="4" result="blur"/>
      <feFlood flood-color="#ffffff" flood-opacity="1"/>
      <feComposite in2="blur" operator="in" result="glow"/>
      <feMerge>
        <feMergeNode in="glow"/>
        <feMergeNode in="SourceGraphic"/>
      </feMerge>
    </filter>
  </defs>
  
  <!-- Dark background with gradient -->
  <rect width="512" height="512" fill="#0a0510"/>
  <radialGradient id="bgGlow" cx="50%" cy="50%">
    <stop offset="0%" style="stop-color:#1a0a2e;stop-opacity:0.5" />
    <stop offset="100%" style="stop-color:#0a0510;stop-opacity:1" />
  </radialGradient>
  <rect width="512" height="512" fill="url(#bgGlow)"/>
  
  <!-- Catalog/Book Icon -->
  <g filter="url(#neonGlow)">
    <!-- Main book cover (left side) -->
    <path d="M 160 120 L 160 400 L 200 380 L 200 100 Z" 
          fill="none" 
          stroke="url(#mainGradient)" 
          stroke-width="8" 
          stroke-linecap="round" 
          stroke-linejoin="round"/>
    
    <path d="M 165 125 L 165 395 L 195 378 L 195 105 Z" 
          fill="none" 
          stroke="url(#mainGradient)" 
          stroke-width="3" 
          stroke-linecap="round" 
          stroke-linejoin="round"
          opacity="0.6"/>
    
    <!-- Main book pages -->
    <path d="M 200 100 L 360 100 L 360 380 L 200 380 L 200 100" 
          fill="none" 
          stroke="url(#mainGradient)" 
          stroke-width="8" 
          stroke-linecap="round" 
          stroke-linejoin="round"/>
    
    <path d="M 205 105 L 355 105 L 355 375 L 205 375 L 205 105" 
          fill="none" 
          stroke="url(#mainGradient)" 
          stroke-width="3" 
          stroke-linecap="round" 
          stroke-linejoin="round"
          opacity="0.6"/>
    
    <!-- Grid pattern on cover (representing catalog items) -->
    <!-- Row 1 -->
    <rect x="230" y="150" width="50" height="50" rx="6" 
          fill="none" 
          stroke="url(#mainGradient)" 
          stroke-width="8" 
          stroke-linecap="round" 
          stroke-linejoin="round"/>
    
    <rect x="235" y="155" width="40" height="40" rx="4" 
          fill="none" 
          stroke="url(#mainGradient)" 
          stroke-width="3" 
          stroke-linecap="round" 
          stroke-linejoin="round"
          opacity="0.6"/>
    
    <rect x="290" y="150" width="50" height="50" rx="6" 
          fill="none" 
          stroke="url(#mainGradient)" 
          stroke-width="8" 
          stroke-linecap="round" 
          stroke-linejoin="round"/>
    
    <rect x="295" y="155" width="40" height="40" rx="4" 
          fill="none" 
          stroke="url(#mainGradient)" 
          stroke-width="3" 
          stroke-linecap="round" 
          stroke-linejoin="round"
          opacity="0.6"/>
    
    <!-- Row 2 -->
    <rect x="230" y="215" width="50" height="50" rx="6" 
          fill="none" 
          stroke="url(#mainGradient)" 
          stroke-width="8" 
          stroke-linecap="round" 
          stroke-linejoin="round"/>
    
    <rect x="235" y="220" width="40" height="40" rx="4" 
          fill="none" 
          stroke="url(#mainGradient)" 
          stroke-width="3" 
          stroke-linecap="round" 
          stroke-linejoin="round"
          opacity="0.6"/>
    
    <rect x="290" y="215" width="50" height="50" rx="6" 
          fill="none" 
          stroke="url(#mainGradient)" 
          stroke-width="8" 
          stroke-linecap="round" 
          stroke-linejoin="round"/>
    
    <rect x="295" y="220" width="40" height="40" rx="4" 
          fill="none" 
          stroke="url(#mainGradient)" 
          stroke-width="3" 
          stroke-linecap="round" 
          stroke-linejoin="round"
          opacity="0.6"/>
    
    <!-- Row 3 -->
    <rect x="230" y="280" width="50" height="50" rx="6" 
          fill="none" 
          stroke="url(#mainGradient)" 
          stroke-width="8" 
          stroke-linecap="round" 
          stroke-linejoin="round"/>
    
    <rect x="235" y="285" width="40" height="40" rx="4" 
          fill="none" 
          stroke="url(#mainGradient)" 
          stroke-width="3" 
          stroke-linecap="round" 
          stroke-linejoin="round"
          opacity="0.6"/>
    
    <rect x="290" y="280" width="50" height="50" rx="6" 
          fill="none" 
          stroke="url(#mainGradient)" 
          stroke-width="8" 
          stroke-linecap="round" 
          stroke-linejoin="round"/>
    
    <rect x="295" y="285" width="40" height="40" rx="4" 
          fill="none" 
          stroke="url(#mainGradient)" 
          stroke-width="3" 
          stroke-linecap="round" 
          stroke-linejoin="round"
          opacity="0.6"/>
  </g>
  
  <!-- Four-pointed sparkles (LEFT SIDE - cyan/purple) -->
  <g filter="url(#sparkleGlow)">
    <path d="M 100 140 L 102 145 L 107 147 L 102 149 L 100 154 L 98 149 L 93 147 L 98 145 Z" 
          fill="#00d4ff">
      <animate attributeName="opacity" values="0.3;1;0.3" dur="2s" repeatCount="indefinite"/>
    </path>
    <path d="M 130 90 L 131 93 L 134 94 L 131 95 L 130 98 L 129 95 L 126 94 L 129 93 Z" 
          fill="#00d4ff">
      <animate attributeName="opacity" values="0.2;1;0.2" dur="2.5s" begin="0.3s" repeatCount="indefinite"/>
    </path>
    <path d="M 85 220 L 86 222 L 88 223 L 86 224 L 85 226 L 84 224 L 82 223 L 84 222 Z" 
          fill="#7b2ff7">
      <animate attributeName="opacity" values="0.4;1;0.4" dur="1.8s" begin="0.6s" repeatCount="indefinite"/>
    </path>
    <path d="M 110 300 L 111 301 L 112 302 L 111 303 L 110 304 L 109 303 L 108 302 L 109 301 Z" 
          fill="#00d4ff">
      <animate attributeName="opacity" values="0.3;1;0.3" dur="2.2s" begin="1s" repeatCount="indefinite"/>
    </path>
  </g>
  
  <!-- Four-pointed sparkles (RIGHT SIDE - orange/pink) -->
  <g filter="url(#sparkleGlow)">
    <path d="M 400 160 L 402 165 L 407 167 L 402 169 L 400 174 L 398 169 L 393 167 L 398 165 Z" 
          fill="#ff6b35">
      <animate attributeName="opacity" values="0.3;1;0.3" dur="2.3s" begin="0.2s" repeatCount="indefinite"/>
    </path>
    <path d="M 380 240 L 381 243 L 384 244 L 381 245 L 380 248 L 379 245 L 376 244 L 379 243 Z" 
          fill="#ff0080">
      <animate attributeName="opacity" values="0.4;1;0.4" dur="1.9s" begin="0.5s" repeatCount="indefinite"/>
    </path>
    <path d="M 415 310 L 416 312 L 418 313 L 416 314 L 415 316 L 414 314 L 412 313 L 414 312 Z" 
          fill="#ff6b35">
      <animate attributeName="opacity" values="0.3;1;0.3" dur="2.1s" begin="0.8s" repeatCount="indefinite"/>
    </path>
    <path d="M 395 360 L 396 361 L 397 362 L 396 363 L 395 364 L 394 363 L 393 362 L 394 361 Z" 
          fill="#ff0080">
      <animate attributeName="opacity" values="0.5;1;0.5" dur="1.7s" begin="1.2s" repeatCount="indefinite"/>
    </path>
  </g>
  
  <!-- Small dot sparkles -->
  <g filter="url(#sparkleGlow)">
    <circle cx="95" cy="180" r="1.5" fill="#7b2ff7">
      <animate attributeName="opacity" values="0;1;0" dur="2s" repeatCount="indefinite"/>
    </circle>
    <circle cx="120" cy="260" r="1" fill="#00d4ff">
      <animate attributeName="opacity" values="0;1;0" dur="2.8s" begin="0.4s" repeatCount="indefinite"/>
    </circle>
    <circle cx="410" cy="200" r="1.5" fill="#ff6b35">
      <animate attributeName="opacity" values="0;1;0" dur="2.4s" begin="0.6s" repeatCount="indefinite"/>
    </circle>
    <circle cx="385" cy="280" r="1" fill="#ff0080">
      <animate attributeName="opacity" values="0;1;0" dur="2.6s" begin="0.9s" repeatCount="indefinite"/>
    </circle>
  </g>
</svg>